solid OpenSCAD_Model
  facet normal -1 0 0
    outer loop
      vertex -2.5 -4.15 2.5
      vertex -2.5 -2.65 4
      vertex -2.5 -2.65 2.5
    endloop
  endfacet
  facet normal -1 0 0
    outer loop
      vertex -2.5 -4.15 8
      vertex -2.5 -2.65 4
      vertex -2.5 -4.15 2.5
    endloop
  endfacet
  facet normal -1 0 0
    outer loop
      vertex -2.5 -2.65 4
      vertex -2.5 -4.15 8
      vertex -2.5 -2.65 8
    endloop
  endfacet
  facet normal -0 0 1
    outer loop
      vertex -2.5 -2.65 8
      vertex 2.5 -4.15 8
      vertex 2.5 -2.65 8
    endloop
  endfacet
  facet normal 0 0 1
    outer loop
      vertex 2.5 -4.15 8
      vertex -2.5 -2.65 8
      vertex -2.5 -4.15 8
    endloop
  endfacet
  facet normal 1 -0 0
    outer loop
      vertex 2.5 -4.15 8
      vertex 2.5 -2.65 4
      vertex 2.5 -2.65 8
    endloop
  endfacet
  facet normal 1 0 0
    outer loop
      vertex 2.5 -4.15 2.5
      vertex 2.5 -2.65 4
      vertex 2.5 -4.15 8
    endloop
  endfacet
  facet normal 1 0 0
    outer loop
      vertex 2.5 -2.65 4
      vertex 2.5 -4.15 2.5
      vertex 2.5 -2.65 2.5
    endloop
  endfacet
  facet normal 0 1 -0
    outer loop
      vertex 2.5 -2.65 4
      vertex -2.5 -2.65 8
      vertex 2.5 -2.65 8
    endloop
  endfacet
  facet normal 0 1 0
    outer loop
      vertex -2.5 -2.65 8
      vertex 2.5 -2.65 4
      vertex -2.5 -2.65 4
    endloop
  endfacet
  facet normal 0 1 -0
    outer loop
      vertex 3.15 -2.65 0
      vertex 2.5 -2.65 2.5
      vertex 3.15 -2.65 2.5
    endloop
  endfacet
  facet normal 0 1 0
    outer loop
      vertex 2.5 -2.65 2.5
      vertex 3.15 -2.65 0
      vertex -2.5 -2.65 2.5
    endloop
  endfacet
  facet normal 0 1 0
    outer loop
      vertex -3.15 -2.65 0
      vertex -2.5 -2.65 2.5
      vertex 3.15 -2.65 0
    endloop
  endfacet
  facet normal 0 1 0
    outer loop
      vertex -2.5 -2.65 2.5
      vertex -3.15 -2.65 0
      vertex -3.15 -2.65 2.5
    endloop
  endfacet
  facet normal 0 1 -0
    outer loop
      vertex 2.5 -2.65 2.5
      vertex -2.5 -2.65 4
      vertex 2.5 -2.65 4
    endloop
  endfacet
  facet normal 0 1 0
    outer loop
      vertex -2.5 -2.65 4
      vertex 2.5 -2.65 2.5
      vertex -2.5 -2.65 2.5
    endloop
  endfacet
  facet normal 0 0 -1
    outer loop
      vertex 3.15 -2.65 0
      vertex 8 0 0
      vertex 7.82518 -1.66329 0
    endloop
  endfacet
  facet normal 0 0 -1
    outer loop
      vertex 3.15 -2.65 0
      vertex 7.82518 -1.66329 0
      vertex 7.30836 -3.25389 0
    endloop
  endfacet
  facet normal 0 0 -1
    outer loop
      vertex 3.15 2.65 0
      vertex 8 0 0
      vertex 3.15 -2.65 0
    endloop
  endfacet
  facet normal 0 0 -1
    outer loop
      vertex 3.15 -2.65 0
      vertex 7.30836 -3.25389 0
      vertex 6.47214 -4.70228 0
    endloop
  endfacet
  facet normal 0 0 -1
    outer loop
      vertex 8 0 0
      vertex 3.15 2.65 0
      vertex 7.82518 1.66329 0
    endloop
  endfacet
  facet normal 0 0 -1
    outer loop
      vertex 3.15 -2.65 0
      vertex 6.47214 -4.70228 0
      vertex 5.35304 -5.94516 0
    endloop
  endfacet
  facet normal 0 0 -1
    outer loop
      vertex 7.82518 1.66329 0
      vertex 3.15 2.65 0
      vertex 7.30836 3.25389 0
    endloop
  endfacet
  facet normal 0 0 -1
    outer loop
      vertex 3.15 -2.65 0
      vertex 5.35304 -5.94516 0
      vertex 4 -6.9282 0
    endloop
  endfacet
  facet normal -0 0 -1
    outer loop
      vertex 7.30836 3.25389 0
      vertex 3.15 2.65 0
      vertex 6.47214 4.70228 0
    endloop
  endfacet
  facet normal -0 0 -1
    outer loop
      vertex 6.47214 4.70228 0
      vertex 3.15 2.65 0
      vertex 5.35304 5.94516 0
    endloop
  endfacet
  facet normal 0 0 -1
    outer loop
      vertex 2.47214 -7.60845 0
      vertex 3.15 -2.65 0
      vertex 4 -6.9282 0
    endloop
  endfacet
  facet normal 0 0 -1
    outer loop
      vertex 0.836227 -7.95617 0
      vertex 3.15 -2.65 0
      vertex 2.47214 -7.60845 0
    endloop
  endfacet
  facet normal 0 0 -1
    outer loop
      vertex -0.836227 -7.95617 0
      vertex 3.15 -2.65 0
      vertex 0.836227 -7.95617 0
    endloop
  endfacet
  facet normal 0 0 -1
    outer loop
      vertex -3.15 -2.65 0
      vertex -0.836227 -7.95617 0
      vertex -2.47214 -7.60845 0
    endloop
  endfacet
  facet normal 0 0 -1
    outer loop
      vertex -0.836227 -7.95617 0
      vertex -3.15 -2.65 0
      vertex 3.15 -2.65 0
    endloop
  endfacet
  facet normal 0 0 -1
    outer loop
      vertex -8 0 0
      vertex -3.15 2.65 0
      vertex -3.15 -2.65 0
    endloop
  endfacet
  facet normal 0 0 -1
    outer loop
      vertex -4 -6.9282 0
      vertex -3.15 -2.65 0
      vertex -2.47214 -7.60845 0
    endloop
  endfacet
  facet normal 0 0 -1
    outer loop
      vertex -5.35304 -5.94516 0
      vertex -3.15 -2.65 0
      vertex -4 -6.9282 0
    endloop
  endfacet
  facet normal 0 0 -1
    outer loop
      vertex -6.47214 -4.70228 0
      vertex -3.15 -2.65 0
      vertex -5.35304 -5.94516 0
    endloop
  endfacet
  facet normal 0 0 -1
    outer loop
      vertex -3.15 2.65 0
      vertex -5.35304 5.94516 0
      vertex -4 6.9282 0
    endloop
  endfacet
  facet normal 0 0 -1
    outer loop
      vertex -7.30836 -3.25389 0
      vertex -3.15 -2.65 0
      vertex -6.47214 -4.70228 0
    endloop
  endfacet
  facet normal 0 0 -1
    outer loop
      vertex -3.15 2.65 0
      vertex -6.47214 4.70228 0
      vertex -5.35304 5.94516 0
    endloop
  endfacet
  facet normal 0 0 -1
    outer loop
      vertex -7.82518 -1.66329 0
      vertex -3.15 -2.65 0
      vertex -7.30836 -3.25389 0
    endloop
  endfacet
  facet normal 0 0 -1
    outer loop
      vertex -3.15 2.65 0
      vertex -7.30836 3.25389 0
      vertex -6.47214 4.70228 0
    endloop
  endfacet
  facet normal 0 0 -1
    outer loop
      vertex -8 0 0
      vertex -3.15 -2.65 0
      vertex -7.82518 -1.66329 0
    endloop
  endfacet
  facet normal -0 0 -1
    outer loop
      vertex -3.15 2.65 0
      vertex -7.82518 1.66329 0
      vertex -7.30836 3.25389 0
    endloop
  endfacet
  facet normal 0 0 -1
    outer loop
      vertex -3.15 2.65 0
      vertex -8 0 0
      vertex -7.82518 1.66329 0
    endloop
  endfacet
  facet normal -0 0 -1
    outer loop
      vertex 5.35304 5.94516 0
      vertex 3.15 2.65 0
      vertex 4 6.9282 0
    endloop
  endfacet
  facet normal 0 0 -1
    outer loop
      vertex 3.15 2.65 0
      vertex 2.47214 7.60845 0
      vertex 4 6.9282 0
    endloop
  endfacet
  facet normal 0 0 -1
    outer loop
      vertex 3.15 2.65 0
      vertex 0.836227 7.95617 0
      vertex 2.47214 7.60845 0
    endloop
  endfacet
  facet normal 0 0 -1
    outer loop
      vertex 3.15 2.65 0
      vertex -0.836227 7.95617 0
      vertex 0.836227 7.95617 0
    endloop
  endfacet
  facet normal 0 0 -1
    outer loop
      vertex -3.15 2.65 0
      vertex -0.836227 7.95617 0
      vertex 3.15 2.65 0
    endloop
  endfacet
  facet normal 0 0 -1
    outer loop
      vertex -0.836227 7.95617 0
      vertex -3.15 2.65 0
      vertex -2.47214 7.60845 0
    endloop
  endfacet
  facet normal 0 0 -1
    outer loop
      vertex -2.47214 7.60845 0
      vertex -3.15 2.65 0
      vertex -4 6.9282 0
    endloop
  endfacet
  facet normal 0 -1 0
    outer loop
      vertex -2.5 -4.15 2.5
      vertex 2.5 -4.15 8
      vertex -2.5 -4.15 8
    endloop
  endfacet
  facet normal 0 -1 -0
    outer loop
      vertex 2.5 -4.15 8
      vertex -2.5 -4.15 2.5
      vertex 2.5 -4.15 2.5
    endloop
  endfacet
  facet normal 0.994522 0.104529 0
    outer loop
      vertex 8 0 2.5
      vertex 7.82518 1.66329 0
      vertex 7.82518 1.66329 2.5
    endloop
  endfacet
  facet normal 0.994522 0.104529 0
    outer loop
      vertex 7.82518 1.66329 0
      vertex 8 0 2.5
      vertex 8 0 0
    endloop
  endfacet
  facet normal -0.994522 0.104529 0
    outer loop
      vertex -8 0 0
      vertex -7.82518 1.66329 2.5
      vertex -7.82518 1.66329 0
    endloop
  endfacet
  facet normal -0.994522 0.104529 0
    outer loop
      vertex -7.82518 1.66329 2.5
      vertex -8 0 0
      vertex -8 0 2.5
    endloop
  endfacet
  facet normal 0 1 -0
    outer loop
      vertex 0.836227 7.95617 0
      vertex -0.836227 7.95617 2.5
      vertex 0.836227 7.95617 2.5
    endloop
  endfacet
  facet normal 0 1 0
    outer loop
      vertex -0.836227 7.95617 2.5
      vertex 0.836227 7.95617 0
      vertex -0.836227 7.95617 0
    endloop
  endfacet
  facet normal 0.587785 0.809017 -0
    outer loop
      vertex 5.35304 5.94516 0
      vertex 4 6.9282 2.5
      vertex 5.35304 5.94516 2.5
    endloop
  endfacet
  facet normal 0.587785 0.809017 0
    outer loop
      vertex 4 6.9282 2.5
      vertex 5.35304 5.94516 0
      vertex 4 6.9282 0
    endloop
  endfacet
  facet normal 0.406737 0.913545 -0
    outer loop
      vertex 4 6.9282 0
      vertex 2.47214 7.60845 2.5
      vertex 4 6.9282 2.5
    endloop
  endfacet
  facet normal 0.406737 0.913545 0
    outer loop
      vertex 2.47214 7.60845 2.5
      vertex 4 6.9282 0
      vertex 2.47214 7.60845 0
    endloop
  endfacet
  facet normal -0.743145 0.669131 0
    outer loop
      vertex -6.47214 4.70228 0
      vertex -5.35304 5.94516 2.5
      vertex -5.35304 5.94516 0
    endloop
  endfacet
  facet normal -0.743145 0.669131 0
    outer loop
      vertex -5.35304 5.94516 2.5
      vertex -6.47214 4.70228 0
      vertex -6.47214 4.70228 2.5
    endloop
  endfacet
  facet normal -0.866026 0.5 0
    outer loop
      vertex -7.30836 3.25389 0
      vertex -6.47214 4.70228 2.5
      vertex -6.47214 4.70228 0
    endloop
  endfacet
  facet normal -0.866026 0.5 0
    outer loop
      vertex -6.47214 4.70228 2.5
      vertex -7.30836 3.25389 0
      vertex -7.30836 3.25389 2.5
    endloop
  endfacet
  facet normal -0.406737 0.913545 0
    outer loop
      vertex -2.47214 7.60845 0
      vertex -4 6.9282 2.5
      vertex -2.47214 7.60845 2.5
    endloop
  endfacet
  facet normal -0.406737 0.913545 0
    outer loop
      vertex -4 6.9282 2.5
      vertex -2.47214 7.60845 0
      vertex -4 6.9282 0
    endloop
  endfacet
  facet normal 0.866026 0.5 0
    outer loop
      vertex 7.30836 3.25389 2.5
      vertex 6.47214 4.70228 0
      vertex 6.47214 4.70228 2.5
    endloop
  endfacet
  facet normal 0.866026 0.5 0
    outer loop
      vertex 6.47214 4.70228 0
      vertex 7.30836 3.25389 2.5
      vertex 7.30836 3.25389 0
    endloop
  endfacet
  facet normal 0.951057 0.309017 0
    outer loop
      vertex 7.82518 1.66329 2.5
      vertex 7.30836 3.25389 0
      vertex 7.30836 3.25389 2.5
    endloop
  endfacet
  facet normal 0.951057 0.309017 0
    outer loop
      vertex 7.30836 3.25389 0
      vertex 7.82518 1.66329 2.5
      vertex 7.82518 1.66329 0
    endloop
  endfacet
  facet normal 0.743145 0.669131 0
    outer loop
      vertex 6.47214 4.70228 2.5
      vertex 5.35304 5.94516 0
      vertex 5.35304 5.94516 2.5
    endloop
  endfacet
  facet normal 0.743145 0.669131 0
    outer loop
      vertex 5.35304 5.94516 0
      vertex 6.47214 4.70228 2.5
      vertex 6.47214 4.70228 0
    endloop
  endfacet
  facet normal 0.207912 0.978148 -0
    outer loop
      vertex 2.47214 7.60845 0
      vertex 0.836227 7.95617 2.5
      vertex 2.47214 7.60845 2.5
    endloop
  endfacet
  facet normal 0.207912 0.978148 0
    outer loop
      vertex 0.836227 7.95617 2.5
      vertex 2.47214 7.60845 0
      vertex 0.836227 7.95617 0
    endloop
  endfacet
  facet normal -0.951057 0.309017 0
    outer loop
      vertex -7.82518 1.66329 0
      vertex -7.30836 3.25389 2.5
      vertex -7.30836 3.25389 0
    endloop
  endfacet
  facet normal -0.951057 0.309017 0
    outer loop
      vertex -7.30836 3.25389 2.5
      vertex -7.82518 1.66329 0
      vertex -7.82518 1.66329 2.5
    endloop
  endfacet
  facet normal 0 0 1
    outer loop
      vertex -2.5 -2.65 2.5
      vertex -3.15 -2.65 2.5
      vertex -2.5 -4.15 2.5
    endloop
  endfacet
  facet normal 0 0 1
    outer loop
      vertex 3.15 2.65 2.5
      vertex 8 0 2.5
      vertex 7.82518 1.66329 2.5
    endloop
  endfacet
  facet normal -0 0 1
    outer loop
      vertex 3.15 2.65 2.5
      vertex 7.82518 1.66329 2.5
      vertex 7.30836 3.25389 2.5
    endloop
  endfacet
  facet normal 0 0 1
    outer loop
      vertex 3.15 -2.65 2.5
      vertex 8 0 2.5
      vertex 3.15 2.65 2.5
    endloop
  endfacet
  facet normal 0 0 1
    outer loop
      vertex 3.15 2.65 2.5
      vertex 7.30836 3.25389 2.5
      vertex 6.47214 4.70228 2.5
    endloop
  endfacet
  facet normal 0 0 1
    outer loop
      vertex 8 0 2.5
      vertex 3.15 -2.65 2.5
      vertex 7.82518 -1.66329 2.5
    endloop
  endfacet
  facet normal 0 0 1
    outer loop
      vertex 3.15 2.65 2.5
      vertex 6.47214 4.70228 2.5
      vertex 5.35304 5.94516 2.5
    endloop
  endfacet
  facet normal 0 0 1
    outer loop
      vertex 7.82518 -1.66329 2.5
      vertex 3.15 -2.65 2.5
      vertex 7.30836 -3.25389 2.5
    endloop
  endfacet
  facet normal 0 0 1
    outer loop
      vertex 3.15 2.65 2.5
      vertex 5.35304 5.94516 2.5
      vertex 4 6.9282 2.5
    endloop
  endfacet
  facet normal 0 0 1
    outer loop
      vertex 7.30836 -3.25389 2.5
      vertex 3.15 -2.65 2.5
      vertex 6.47214 -4.70228 2.5
    endloop
  endfacet
  facet normal 0 0 1
    outer loop
      vertex 6.47214 -4.70228 2.5
      vertex 3.15 -2.65 2.5
      vertex 5.35304 -5.94516 2.5
    endloop
  endfacet
  facet normal 0 0 1
    outer loop
      vertex 2.47214 7.60845 2.5
      vertex 3.15 2.65 2.5
      vertex 4 6.9282 2.5
    endloop
  endfacet
  facet normal 0 0 1
    outer loop
      vertex 0.836227 7.95617 2.5
      vertex 3.15 2.65 2.5
      vertex 2.47214 7.60845 2.5
    endloop
  endfacet
  facet normal -0 0 1
    outer loop
      vertex -0.836227 7.95617 2.5
      vertex 3.15 2.65 2.5
      vertex 0.836227 7.95617 2.5
    endloop
  endfacet
  facet normal 0 0 1
    outer loop
      vertex -3.15 2.65 2.5
      vertex -0.836227 7.95617 2.5
      vertex -2.47214 7.60845 2.5
    endloop
  endfacet
  facet normal 0 0 1
    outer loop
      vertex -0.836227 7.95617 2.5
      vertex -3.15 2.65 2.5
      vertex 3.15 2.65 2.5
    endloop
  endfacet
  facet normal -0 0 1
    outer loop
      vertex -5.35304 5.94516 2.5
      vertex -3.15 2.65 2.5
      vertex -4 6.9282 2.5
    endloop
  endfacet
  facet normal -0 0 1
    outer loop
      vertex -4 6.9282 2.5
      vertex -3.15 2.65 2.5
      vertex -2.47214 7.60845 2.5
    endloop
  endfacet
  facet normal -0 0 1
    outer loop
      vertex 2.5 -4.15 2.5
      vertex 5.35304 -5.94516 2.5
      vertex 3.15 -2.65 2.5
    endloop
  endfacet
  facet normal 0 0 1
    outer loop
      vertex 2.5 -4.15 2.5
      vertex 3.15 -2.65 2.5
      vertex 2.5 -2.65 2.5
    endloop
  endfacet
  facet normal 0 0 1
    outer loop
      vertex 5.35304 -5.94516 2.5
      vertex 2.5 -4.15 2.5
      vertex 4 -6.9282 2.5
    endloop
  endfacet
  facet normal 0 0 1
    outer loop
      vertex 2.5 -4.15 2.5
      vertex 2.47214 -7.60845 2.5
      vertex 4 -6.9282 2.5
    endloop
  endfacet
  facet normal 0 0 1
    outer loop
      vertex 2.5 -4.15 2.5
      vertex 0.836227 -7.95617 2.5
      vertex 2.47214 -7.60845 2.5
    endloop
  endfacet
  facet normal 0 0 1
    outer loop
      vertex 2.5 -4.15 2.5
      vertex -0.836227 -7.95617 2.5
      vertex 0.836227 -7.95617 2.5
    endloop
  endfacet
  facet normal -0 0 1
    outer loop
      vertex -2.5 -4.15 2.5
      vertex -0.836227 -7.95617 2.5
      vertex 2.5 -4.15 2.5
    endloop
  endfacet
  facet normal 0 0 1
    outer loop
      vertex -0.836227 -7.95617 2.5
      vertex -2.5 -4.15 2.5
      vertex -2.47214 -7.60845 2.5
    endloop
  endfacet
  facet normal 0 0 1
    outer loop
      vertex -5.35304 -5.94516 2.5
      vertex -2.5 -4.15 2.5
      vertex -3.15 -2.65 2.5
    endloop
  endfacet
  facet normal 0 0 1
    outer loop
      vertex -2.5 -4.15 2.5
      vertex -4 -6.9282 2.5
      vertex -2.47214 -7.60845 2.5
    endloop
  endfacet
  facet normal -0 0 1
    outer loop
      vertex -6.47214 4.70228 2.5
      vertex -3.15 2.65 2.5
      vertex -5.35304 5.94516 2.5
    endloop
  endfacet
  facet normal -0 0 1
    outer loop
      vertex -7.30836 3.25389 2.5
      vertex -3.15 2.65 2.5
      vertex -6.47214 4.70228 2.5
    endloop
  endfacet
  facet normal 0 0 1
    outer loop
      vertex -2.5 -4.15 2.5
      vertex -5.35304 -5.94516 2.5
      vertex -4 -6.9282 2.5
    endloop
  endfacet
  facet normal 0 0 1
    outer loop
      vertex -7.82518 1.66329 2.5
      vertex -3.15 2.65 2.5
      vertex -7.30836 3.25389 2.5
    endloop
  endfacet
  facet normal 0 0 1
    outer loop
      vertex -3.15 -2.65 2.5
      vertex -6.47214 -4.70228 2.5
      vertex -5.35304 -5.94516 2.5
    endloop
  endfacet
  facet normal 0 0 1
    outer loop
      vertex -8 0 2.5
      vertex -3.15 2.65 2.5
      vertex -7.82518 1.66329 2.5
    endloop
  endfacet
  facet normal 0 0 1
    outer loop
      vertex -3.15 -2.65 2.5
      vertex -7.30836 -3.25389 2.5
      vertex -6.47214 -4.70228 2.5
    endloop
  endfacet
  facet normal 0 0 1
    outer loop
      vertex -3.15 2.65 2.5
      vertex -8 0 2.5
      vertex -3.15 -2.65 2.5
    endloop
  endfacet
  facet normal 0 0 1
    outer loop
      vertex -3.15 -2.65 2.5
      vertex -7.82518 -1.66329 2.5
      vertex -7.30836 -3.25389 2.5
    endloop
  endfacet
  facet normal 0 0 1
    outer loop
      vertex -3.15 -2.65 2.5
      vertex -8 0 2.5
      vertex -7.82518 -1.66329 2.5
    endloop
  endfacet
  facet normal -0.587785 0.809017 0
    outer loop
      vertex -4 6.9282 0
      vertex -5.35304 5.94516 2.5
      vertex -4 6.9282 2.5
    endloop
  endfacet
  facet normal -0.587785 0.809017 0
    outer loop
      vertex -5.35304 5.94516 2.5
      vertex -4 6.9282 0
      vertex -5.35304 5.94516 0
    endloop
  endfacet
  facet normal -0.207912 0.978148 0
    outer loop
      vertex -0.836227 7.95617 0
      vertex -2.47214 7.60845 2.5
      vertex -0.836227 7.95617 2.5
    endloop
  endfacet
  facet normal -0.207912 0.978148 0
    outer loop
      vertex -2.47214 7.60845 2.5
      vertex -0.836227 7.95617 0
      vertex -2.47214 7.60845 0
    endloop
  endfacet
  facet normal 0.994522 -0.104529 0
    outer loop
      vertex 7.82518 -1.66329 2.5
      vertex 8 0 0
      vertex 8 0 2.5
    endloop
  endfacet
  facet normal 0.994522 -0.104529 0
    outer loop
      vertex 8 0 0
      vertex 7.82518 -1.66329 2.5
      vertex 7.82518 -1.66329 0
    endloop
  endfacet
  facet normal -0.207912 -0.978148 0
    outer loop
      vertex -2.47214 -7.60845 0
      vertex -0.836227 -7.95617 2.5
      vertex -2.47214 -7.60845 2.5
    endloop
  endfacet
  facet normal -0.207912 -0.978148 -0
    outer loop
      vertex -0.836227 -7.95617 2.5
      vertex -2.47214 -7.60845 0
      vertex -0.836227 -7.95617 0
    endloop
  endfacet
  facet normal 0.207912 -0.978148 0
    outer loop
      vertex 0.836227 -7.95617 0
      vertex 2.47214 -7.60845 2.5
      vertex 0.836227 -7.95617 2.5
    endloop
  endfacet
  facet normal 0.207912 -0.978148 0
    outer loop
      vertex 2.47214 -7.60845 2.5
      vertex 0.836227 -7.95617 0
      vertex 2.47214 -7.60845 0
    endloop
  endfacet
  facet normal 0.743145 -0.669131 0
    outer loop
      vertex 5.35304 -5.94516 2.5
      vertex 6.47214 -4.70228 0
      vertex 6.47214 -4.70228 2.5
    endloop
  endfacet
  facet normal 0.743145 -0.669131 0
    outer loop
      vertex 6.47214 -4.70228 0
      vertex 5.35304 -5.94516 2.5
      vertex 5.35304 -5.94516 0
    endloop
  endfacet
  facet normal 0.951057 -0.309017 0
    outer loop
      vertex 7.30836 -3.25389 2.5
      vertex 7.82518 -1.66329 0
      vertex 7.82518 -1.66329 2.5
    endloop
  endfacet
  facet normal 0.951057 -0.309017 0
    outer loop
      vertex 7.82518 -1.66329 0
      vertex 7.30836 -3.25389 2.5
      vertex 7.30836 -3.25389 0
    endloop
  endfacet
  facet normal 0.866026 -0.5 0
    outer loop
      vertex 6.47214 -4.70228 2.5
      vertex 7.30836 -3.25389 0
      vertex 7.30836 -3.25389 2.5
    endloop
  endfacet
  facet normal 0.866026 -0.5 0
    outer loop
      vertex 7.30836 -3.25389 0
      vertex 6.47214 -4.70228 2.5
      vertex 6.47214 -4.70228 0
    endloop
  endfacet
  facet normal -0.866026 -0.5 0
    outer loop
      vertex -6.47214 -4.70228 0
      vertex -7.30836 -3.25389 2.5
      vertex -7.30836 -3.25389 0
    endloop
  endfacet
  facet normal -0.866026 -0.5 0
    outer loop
      vertex -7.30836 -3.25389 2.5
      vertex -6.47214 -4.70228 0
      vertex -6.47214 -4.70228 2.5
    endloop
  endfacet
  facet normal -0.994522 -0.104529 0
    outer loop
      vertex -7.82518 -1.66329 0
      vertex -8 0 2.5
      vertex -8 0 0
    endloop
  endfacet
  facet normal -0.994522 -0.104529 0
    outer loop
      vertex -8 0 2.5
      vertex -7.82518 -1.66329 0
      vertex -7.82518 -1.66329 2.5
    endloop
  endfacet
  facet normal -0.951057 -0.309017 0
    outer loop
      vertex -7.30836 -3.25389 0
      vertex -7.82518 -1.66329 2.5
      vertex -7.82518 -1.66329 0
    endloop
  endfacet
  facet normal -0.951057 -0.309017 0
    outer loop
      vertex -7.82518 -1.66329 2.5
      vertex -7.30836 -3.25389 0
      vertex -7.30836 -3.25389 2.5
    endloop
  endfacet
  facet normal 0.587785 -0.809017 0
    outer loop
      vertex 4 -6.9282 0
      vertex 5.35304 -5.94516 2.5
      vertex 4 -6.9282 2.5
    endloop
  endfacet
  facet normal 0.587785 -0.809017 0
    outer loop
      vertex 5.35304 -5.94516 2.5
      vertex 4 -6.9282 0
      vertex 5.35304 -5.94516 0
    endloop
  endfacet
  facet normal 0.406737 -0.913545 0
    outer loop
      vertex 2.47214 -7.60845 0
      vertex 4 -6.9282 2.5
      vertex 2.47214 -7.60845 2.5
    endloop
  endfacet
  facet normal 0.406737 -0.913545 0
    outer loop
      vertex 4 -6.9282 2.5
      vertex 2.47214 -7.60845 0
      vertex 4 -6.9282 0
    endloop
  endfacet
  facet normal 0 -1 0
    outer loop
      vertex -0.836227 -7.95617 0
      vertex 0.836227 -7.95617 2.5
      vertex -0.836227 -7.95617 2.5
    endloop
  endfacet
  facet normal 0 -1 -0
    outer loop
      vertex 0.836227 -7.95617 2.5
      vertex -0.836227 -7.95617 0
      vertex 0.836227 -7.95617 0
    endloop
  endfacet
  facet normal -0.406737 -0.913545 0
    outer loop
      vertex -4 -6.9282 0
      vertex -2.47214 -7.60845 2.5
      vertex -4 -6.9282 2.5
    endloop
  endfacet
  facet normal -0.406737 -0.913545 -0
    outer loop
      vertex -2.47214 -7.60845 2.5
      vertex -4 -6.9282 0
      vertex -2.47214 -7.60845 0
    endloop
  endfacet
  facet normal -0.743145 -0.669131 0
    outer loop
      vertex -5.35304 -5.94516 0
      vertex -6.47214 -4.70228 2.5
      vertex -6.47214 -4.70228 0
    endloop
  endfacet
  facet normal -0.743145 -0.669131 0
    outer loop
      vertex -6.47214 -4.70228 2.5
      vertex -5.35304 -5.94516 0
      vertex -5.35304 -5.94516 2.5
    endloop
  endfacet
  facet normal -0.587785 -0.809017 0
    outer loop
      vertex -5.35304 -5.94516 0
      vertex -4 -6.9282 2.5
      vertex -5.35304 -5.94516 2.5
    endloop
  endfacet
  facet normal -0.587785 -0.809017 -0
    outer loop
      vertex -4 -6.9282 2.5
      vertex -5.35304 -5.94516 0
      vertex -4 -6.9282 0
    endloop
  endfacet
  facet normal 1 -0 0
    outer loop
      vertex -3.15 -2.65 2.5
      vertex -3.15 2.65 0
      vertex -3.15 2.65 2.5
    endloop
  endfacet
  facet normal 1 0 0
    outer loop
      vertex -3.15 2.65 0
      vertex -3.15 -2.65 2.5
      vertex -3.15 -2.65 0
    endloop
  endfacet
  facet normal -1 0 0
    outer loop
      vertex 3.15 -2.65 0
      vertex 3.15 2.65 2.5
      vertex 3.15 2.65 0
    endloop
  endfacet
  facet normal -1 -0 0
    outer loop
      vertex 3.15 2.65 2.5
      vertex 3.15 -2.65 0
      vertex 3.15 -2.65 2.5
    endloop
  endfacet
  facet normal 0 -1 0
    outer loop
      vertex -3.15 2.65 0
      vertex 3.15 2.65 2.5
      vertex -3.15 2.65 2.5
    endloop
  endfacet
  facet normal 0 -1 -0
    outer loop
      vertex 3.15 2.65 2.5
      vertex -3.15 2.65 0
      vertex 3.15 2.65 0
    endloop
  endfacet
endsolid OpenSCAD_Model
