solid OpenSCAD_Model
  facet normal -1 0 0
    outer loop
      vertex -2.4 -1.8 -0.5
      vertex -2.4 1.3 5.34059
      vertex -2.4 1.3 -0.5
    endloop
  endfacet
  facet normal -1 -0 0
    outer loop
      vertex -2.4 1.3 5.34059
      vertex -2.4 -1.8 -0.5
      vertex -2.4 -1.8 5.34059
    endloop
  endfacet
  facet normal -0 0 1
    outer loop
      vertex 2.44745 3.3 6.5
      vertex 4 1.3 6.5
      vertex 4 3.3 6.5
    endloop
  endfacet
  facet normal 0 0 1
    outer loop
      vertex 4 1.3 6.5
      vertex 2.44745 3.3 6.5
      vertex 2.44745 1.3 6.5
    endloop
  endfacet
  facet normal -0 0 1
    outer loop
      vertex -4 3.3 6.5
      vertex -2.44745 1.3 6.5
      vertex -2.44745 3.3 6.5
    endloop
  endfacet
  facet normal 0 0 1
    outer loop
      vertex -2.44745 1.3 6.5
      vertex -4 3.3 6.5
      vertex -4 1.3 6.5
    endloop
  endfacet
  facet normal 1 -0 0
    outer loop
      vertex 2.4 -1.8 5.34059
      vertex 2.4 1.3 -0.5
      vertex 2.4 1.3 5.34059
    endloop
  endfacet
  facet normal 1 0 0
    outer loop
      vertex 2.4 1.3 -0.5
      vertex 2.4 -1.8 5.34059
      vertex 2.4 -1.8 -0.5
    endloop
  endfacet
  facet normal 0 0 -1
    outer loop
      vertex 2.4 -1.8 -0.5
      vertex -2.4 -1.8 -0.5
      vertex 2.4 1.3 -0.5
    endloop
  endfacet
  facet normal 0 0 -1
    outer loop
      vertex 2.4 1.3 -0.5
      vertex 4 3.3 -0.5
      vertex 4 1.3 -0.5
    endloop
  endfacet
  facet normal 0 0 -1
    outer loop
      vertex -2.4 1.3 -0.5
      vertex 2.4 1.3 -0.5
      vertex -2.4 -1.8 -0.5
    endloop
  endfacet
  facet normal 0 0 -1
    outer loop
      vertex 2.4 1.3 -0.5
      vertex -2.4 1.3 -0.5
      vertex 4 3.3 -0.5
    endloop
  endfacet
  facet normal 0 0 -1
    outer loop
      vertex -4 3.3 -0.5
      vertex -2.4 1.3 -0.5
      vertex -4 1.3 -0.5
    endloop
  endfacet
  facet normal 0 0 -1
    outer loop
      vertex -2.4 1.3 -0.5
      vertex -4 3.3 -0.5
      vertex 4 3.3 -0.5
    endloop
  endfacet
  facet normal 0 -1 -0
    outer loop
      vertex -0.261321 -1.8 3.51369
      vertex -2.4 -1.8 -0.5
      vertex 0.261321 -1.8 3.51369
    endloop
  endfacet
  facet normal 0 -1 -0
    outer loop
      vertex -0.772542 -1.8 3.62236
      vertex -2.4 -1.8 -0.5
      vertex -0.261321 -1.8 3.51369
    endloop
  endfacet
  facet normal 0 -1 -0
    outer loop
      vertex -1.25 -1.8 3.83494
      vertex -2.4 -1.8 -0.5
      vertex -0.772542 -1.8 3.62236
    endloop
  endfacet
  facet normal 0 -1 -0
    outer loop
      vertex -1.67283 -1.8 4.14214
      vertex -2.4 -1.8 -0.5
      vertex -1.25 -1.8 3.83494
    endloop
  endfacet
  facet normal 0 -1 -0
    outer loop
      vertex -2.02254 -1.8 4.53054
      vertex -2.4 -1.8 -0.5
      vertex -1.67283 -1.8 4.14214
    endloop
  endfacet
  facet normal 0 -1 -0
    outer loop
      vertex -2.28386 -1.8 4.98316
      vertex -2.4 -1.8 -0.5
      vertex -2.02254 -1.8 4.53054
    endloop
  endfacet
  facet normal 0 -1 0
    outer loop
      vertex -2.4 -1.8 -0.5
      vertex -2.28386 -1.8 4.98316
      vertex -2.4 -1.8 5.34059
    endloop
  endfacet
  facet normal 0 -1 0
    outer loop
      vertex 2.4 -1.8 -0.5
      vertex 0.261321 -1.8 3.51369
      vertex -2.4 -1.8 -0.5
    endloop
  endfacet
  facet normal 0 -1 0
    outer loop
      vertex 0.261321 -1.8 3.51369
      vertex 2.4 -1.8 -0.5
      vertex 0.772542 -1.8 3.62236
    endloop
  endfacet
  facet normal 0 -1 0
    outer loop
      vertex 0.772542 -1.8 3.62236
      vertex 2.4 -1.8 -0.5
      vertex 1.25 -1.8 3.83494
    endloop
  endfacet
  facet normal 0 -1 0
    outer loop
      vertex 1.25 -1.8 3.83494
      vertex 2.4 -1.8 -0.5
      vertex 1.67283 -1.8 4.14214
    endloop
  endfacet
  facet normal 0 -1 0
    outer loop
      vertex 2.28386 -1.8 4.98316
      vertex 2.4 -1.8 -0.5
      vertex 2.4 -1.8 5.34059
    endloop
  endfacet
  facet normal 0 -1 0
    outer loop
      vertex 2.02254 -1.8 4.53054
      vertex 2.4 -1.8 -0.5
      vertex 2.28386 -1.8 4.98316
    endloop
  endfacet
  facet normal 0 -1 0
    outer loop
      vertex 1.67283 -1.8 4.14214
      vertex 2.4 -1.8 -0.5
      vertex 2.02254 -1.8 4.53054
    endloop
  endfacet
  facet normal -1 0 0
    outer loop
      vertex -4 1.3 -0.5
      vertex -4 3.3 6.5
      vertex -4 3.3 -0.5
    endloop
  endfacet
  facet normal -1 -0 0
    outer loop
      vertex -4 3.3 6.5
      vertex -4 1.3 -0.5
      vertex -4 1.3 6.5
    endloop
  endfacet
  facet normal 1 -0 0
    outer loop
      vertex 4 1.3 6.5
      vertex 4 3.3 -0.5
      vertex 4 3.3 6.5
    endloop
  endfacet
  facet normal 1 0 0
    outer loop
      vertex 4 3.3 -0.5
      vertex 4 1.3 6.5
      vertex 4 1.3 -0.5
    endloop
  endfacet
  facet normal 0 1 0
    outer loop
      vertex 4 3.3 6.5
      vertex 2.5 3.3 6
      vertex 2.44745 3.3 6.5
    endloop
  endfacet
  facet normal 0 1 0
    outer loop
      vertex 4 3.3 6.5
      vertex 2.44537 3.3 5.48022
      vertex 2.5 3.3 6
    endloop
  endfacet
  facet normal 0 1 0
    outer loop
      vertex 4 3.3 6.5
      vertex 2.28386 3.3 4.98316
      vertex 2.44537 3.3 5.48022
    endloop
  endfacet
  facet normal 0 1 -0
    outer loop
      vertex 4 3.3 -0.5
      vertex 2.28386 3.3 4.98316
      vertex 4 3.3 6.5
    endloop
  endfacet
  facet normal 0 1 0
    outer loop
      vertex 2.28386 3.3 4.98316
      vertex 4 3.3 -0.5
      vertex 2.02254 3.3 4.53054
    endloop
  endfacet
  facet normal 0 1 0
    outer loop
      vertex 0.261321 3.3 3.51369
      vertex 4 3.3 -0.5
      vertex -0.261321 3.3 3.51369
    endloop
  endfacet
  facet normal 0 1 0
    outer loop
      vertex 0.772542 3.3 3.62236
      vertex 4 3.3 -0.5
      vertex 0.261321 3.3 3.51369
    endloop
  endfacet
  facet normal 0 1 0
    outer loop
      vertex 1.25 3.3 3.83494
      vertex 4 3.3 -0.5
      vertex 0.772542 3.3 3.62236
    endloop
  endfacet
  facet normal 0 1 0
    outer loop
      vertex 1.67283 3.3 4.14214
      vertex 4 3.3 -0.5
      vertex 1.25 3.3 3.83494
    endloop
  endfacet
  facet normal 0 1 0
    outer loop
      vertex 2.02254 3.3 4.53054
      vertex 4 3.3 -0.5
      vertex 1.67283 3.3 4.14214
    endloop
  endfacet
  facet normal 0 1 -0
    outer loop
      vertex -2.5 3.3 6
      vertex -4 3.3 6.5
      vertex -2.44745 3.3 6.5
    endloop
  endfacet
  facet normal 0 1 0
    outer loop
      vertex -2.44537 3.3 5.48022
      vertex -4 3.3 6.5
      vertex -2.5 3.3 6
    endloop
  endfacet
  facet normal 0 1 0
    outer loop
      vertex -2.28386 3.3 4.98316
      vertex -4 3.3 6.5
      vertex -2.44537 3.3 5.48022
    endloop
  endfacet
  facet normal 0 1 0
    outer loop
      vertex -4 3.3 -0.5
      vertex -2.28386 3.3 4.98316
      vertex -2.02254 3.3 4.53054
    endloop
  endfacet
  facet normal 0 1 0
    outer loop
      vertex -4 3.3 -0.5
      vertex -2.02254 3.3 4.53054
      vertex -1.67283 3.3 4.14214
    endloop
  endfacet
  facet normal 0 1 0
    outer loop
      vertex -4 3.3 -0.5
      vertex -0.261321 3.3 3.51369
      vertex 4 3.3 -0.5
    endloop
  endfacet
  facet normal 0 1 0
    outer loop
      vertex -0.261321 3.3 3.51369
      vertex -4 3.3 -0.5
      vertex -0.772542 3.3 3.62236
    endloop
  endfacet
  facet normal 0 1 0
    outer loop
      vertex -0.772542 3.3 3.62236
      vertex -4 3.3 -0.5
      vertex -1.25 3.3 3.83494
    endloop
  endfacet
  facet normal 0 1 0
    outer loop
      vertex -2.28386 3.3 4.98316
      vertex -4 3.3 -0.5
      vertex -4 3.3 6.5
    endloop
  endfacet
  facet normal 0 1 0
    outer loop
      vertex -1.25 3.3 3.83494
      vertex -4 3.3 -0.5
      vertex -1.67283 3.3 4.14214
    endloop
  endfacet
  facet normal 0 -1 0
    outer loop
      vertex 2.5 1.3 6
      vertex 4 1.3 6.5
      vertex 2.44745 1.3 6.5
    endloop
  endfacet
  facet normal 0 -1 0
    outer loop
      vertex 2.44537 1.3 5.48022
      vertex 4 1.3 6.5
      vertex 2.5 1.3 6
    endloop
  endfacet
  facet normal 0 -1 0
    outer loop
      vertex 2.4 1.3 5.34059
      vertex 4 1.3 6.5
      vertex 2.44537 1.3 5.48022
    endloop
  endfacet
  facet normal 0 -1 0
    outer loop
      vertex 4 1.3 -0.5
      vertex 2.4 1.3 5.34059
      vertex 2.4 1.3 -0.5
    endloop
  endfacet
  facet normal 0 -1 0
    outer loop
      vertex 2.4 1.3 5.34059
      vertex 4 1.3 -0.5
      vertex 4 1.3 6.5
    endloop
  endfacet
  facet normal 0 -1 0
    outer loop
      vertex -4 1.3 6.5
      vertex -2.5 1.3 6
      vertex -2.44745 1.3 6.5
    endloop
  endfacet
  facet normal 0 -1 0
    outer loop
      vertex -4 1.3 6.5
      vertex -2.44537 1.3 5.48022
      vertex -2.5 1.3 6
    endloop
  endfacet
  facet normal 0 -1 0
    outer loop
      vertex -4 1.3 6.5
      vertex -2.4 1.3 5.34059
      vertex -2.44537 1.3 5.48022
    endloop
  endfacet
  facet normal 0 -1 0
    outer loop
      vertex -4 1.3 -0.5
      vertex -2.4 1.3 5.34059
      vertex -4 1.3 6.5
    endloop
  endfacet
  facet normal 0 -1 -0
    outer loop
      vertex -2.4 1.3 5.34059
      vertex -4 1.3 -0.5
      vertex -2.4 1.3 -0.5
    endloop
  endfacet
  facet normal -0.994522 0 -0.104529
    outer loop
      vertex 2.5 1.3 6
      vertex 2.44745 3.3 6.5
      vertex 2.5 3.3 6
    endloop
  endfacet
  facet normal -0.994522 -0 -0.104529
    outer loop
      vertex 2.44745 3.3 6.5
      vertex 2.5 1.3 6
      vertex 2.44745 1.3 6.5
    endloop
  endfacet
  facet normal -0.994522 0 0.104529
    outer loop
      vertex 2.44537 1.3 5.48022
      vertex 2.5 3.3 6
      vertex 2.44537 3.3 5.48022
    endloop
  endfacet
  facet normal -0.994522 0 0.104529
    outer loop
      vertex 2.5 3.3 6
      vertex 2.44537 1.3 5.48022
      vertex 2.5 1.3 6
    endloop
  endfacet
  facet normal -0 0 1
    outer loop
      vertex -0.261321 3.3 3.51369
      vertex 0.261321 -1.8 3.51369
      vertex 0.261321 3.3 3.51369
    endloop
  endfacet
  facet normal 0 0 1
    outer loop
      vertex 0.261321 -1.8 3.51369
      vertex -0.261321 3.3 3.51369
      vertex -0.261321 -1.8 3.51369
    endloop
  endfacet
  facet normal 0.994522 -0 0.104529
    outer loop
      vertex -2.5 1.3 6
      vertex -2.44537 3.3 5.48022
      vertex -2.5 3.3 6
    endloop
  endfacet
  facet normal 0.994522 0 0.104529
    outer loop
      vertex -2.44537 3.3 5.48022
      vertex -2.5 1.3 6
      vertex -2.44537 1.3 5.48022
    endloop
  endfacet
  facet normal -0.207912 0 0.978148
    outer loop
      vertex 0.261321 3.3 3.51369
      vertex 0.772542 -1.8 3.62236
      vertex 0.772542 3.3 3.62236
    endloop
  endfacet
  facet normal -0.207912 0 0.978148
    outer loop
      vertex 0.772542 -1.8 3.62236
      vertex 0.261321 3.3 3.51369
      vertex 0.261321 -1.8 3.51369
    endloop
  endfacet
  facet normal -0.866025 0 0.5
    outer loop
      vertex 2.02254 -1.8 4.53054
      vertex 2.28386 3.3 4.98316
      vertex 2.02254 3.3 4.53054
    endloop
  endfacet
  facet normal -0.866025 0 0.5
    outer loop
      vertex 2.28386 3.3 4.98316
      vertex 2.02254 -1.8 4.53054
      vertex 2.28386 -1.8 4.98316
    endloop
  endfacet
  facet normal -0.406736 0 0.913546
    outer loop
      vertex 0.772542 3.3 3.62236
      vertex 1.25 -1.8 3.83494
      vertex 1.25 3.3 3.83494
    endloop
  endfacet
  facet normal -0.406736 0 0.913546
    outer loop
      vertex 1.25 -1.8 3.83494
      vertex 0.772542 3.3 3.62236
      vertex 0.772542 -1.8 3.62236
    endloop
  endfacet
  facet normal 0.406736 0 0.913546
    outer loop
      vertex -1.25 3.3 3.83494
      vertex -0.772542 -1.8 3.62236
      vertex -0.772542 3.3 3.62236
    endloop
  endfacet
  facet normal 0.406736 0 0.913546
    outer loop
      vertex -0.772542 -1.8 3.62236
      vertex -1.25 3.3 3.83494
      vertex -1.25 -1.8 3.83494
    endloop
  endfacet
  facet normal 0.994522 0 -0.104529
    outer loop
      vertex -2.44745 1.3 6.5
      vertex -2.5 3.3 6
      vertex -2.44745 3.3 6.5
    endloop
  endfacet
  facet normal 0.994522 0 -0.104529
    outer loop
      vertex -2.5 3.3 6
      vertex -2.44745 1.3 6.5
      vertex -2.5 1.3 6
    endloop
  endfacet
  facet normal -0.587786 0 0.809017
    outer loop
      vertex 1.25 3.3 3.83494
      vertex 1.67283 -1.8 4.14214
      vertex 1.67283 3.3 4.14214
    endloop
  endfacet
  facet normal -0.587786 0 0.809017
    outer loop
      vertex 1.67283 -1.8 4.14214
      vertex 1.25 3.3 3.83494
      vertex 1.25 -1.8 3.83494
    endloop
  endfacet
  facet normal -0.743145 0 0.669131
    outer loop
      vertex 1.67283 -1.8 4.14214
      vertex 2.02254 3.3 4.53054
      vertex 1.67283 3.3 4.14214
    endloop
  endfacet
  facet normal -0.743145 0 0.669131
    outer loop
      vertex 2.02254 3.3 4.53054
      vertex 1.67283 -1.8 4.14214
      vertex 2.02254 -1.8 4.53054
    endloop
  endfacet
  facet normal -0.951056 2.02706e-08 0.309018
    outer loop
      vertex 2.28386 3.3 4.98316
      vertex 2.4 1.3 5.34059
      vertex 2.44537 3.3 5.48022
    endloop
  endfacet
  facet normal -0.951056 0 0.309018
    outer loop
      vertex 2.28386 -1.8 4.98316
      vertex 2.4 1.3 5.34059
      vertex 2.28386 3.3 4.98316
    endloop
  endfacet
  facet normal -0.951056 0 0.309018
    outer loop
      vertex 2.4 1.3 5.34059
      vertex 2.28386 -1.8 4.98316
      vertex 2.4 -1.8 5.34059
    endloop
  endfacet
  facet normal -0.951056 0 0.309018
    outer loop
      vertex 2.44537 3.3 5.48022
      vertex 2.4 1.3 5.34059
      vertex 2.44537 1.3 5.48022
    endloop
  endfacet
  facet normal 0.207912 0 0.978148
    outer loop
      vertex -0.772542 3.3 3.62236
      vertex -0.261321 -1.8 3.51369
      vertex -0.261321 3.3 3.51369
    endloop
  endfacet
  facet normal 0.207912 0 0.978148
    outer loop
      vertex -0.261321 -1.8 3.51369
      vertex -0.772542 3.3 3.62236
      vertex -0.772542 -1.8 3.62236
    endloop
  endfacet
  facet normal 0.951056 0 0.309018
    outer loop
      vertex -2.4 1.3 5.34059
      vertex -2.44537 3.3 5.48022
      vertex -2.44537 1.3 5.48022
    endloop
  endfacet
  facet normal 0.951056 2.02706e-08 0.309018
    outer loop
      vertex -2.44537 3.3 5.48022
      vertex -2.4 1.3 5.34059
      vertex -2.28386 3.3 4.98316
    endloop
  endfacet
  facet normal 0.951056 0 0.309018
    outer loop
      vertex -2.28386 -1.8 4.98316
      vertex -2.4 1.3 5.34059
      vertex -2.4 -1.8 5.34059
    endloop
  endfacet
  facet normal 0.951056 0 0.309018
    outer loop
      vertex -2.4 1.3 5.34059
      vertex -2.28386 -1.8 4.98316
      vertex -2.28386 3.3 4.98316
    endloop
  endfacet
  facet normal 0.866025 -0 0.5
    outer loop
      vertex -2.28386 -1.8 4.98316
      vertex -2.02254 3.3 4.53054
      vertex -2.28386 3.3 4.98316
    endloop
  endfacet
  facet normal 0.866025 0 0.5
    outer loop
      vertex -2.02254 3.3 4.53054
      vertex -2.28386 -1.8 4.98316
      vertex -2.02254 -1.8 4.53054
    endloop
  endfacet
  facet normal 0.743145 -0 0.669131
    outer loop
      vertex -2.02254 -1.8 4.53054
      vertex -1.67283 3.3 4.14214
      vertex -2.02254 3.3 4.53054
    endloop
  endfacet
  facet normal 0.743145 0 0.669131
    outer loop
      vertex -1.67283 3.3 4.14214
      vertex -2.02254 -1.8 4.53054
      vertex -1.67283 -1.8 4.14214
    endloop
  endfacet
  facet normal 0.587786 0 0.809017
    outer loop
      vertex -1.67283 3.3 4.14214
      vertex -1.25 -1.8 3.83494
      vertex -1.25 3.3 3.83494
    endloop
  endfacet
  facet normal 0.587786 0 0.809017
    outer loop
      vertex -1.25 -1.8 3.83494
      vertex -1.67283 3.3 4.14214
      vertex -1.67283 -1.8 4.14214
    endloop
  endfacet
endsolid OpenSCAD_Model
